Coordinates
version=1
nRows=37
nColumns=19
inDegrees=yes

Units are S.I. units (second, meters, Newtons, ...)
If the header above contains a line with 'inDegrees', this indicates whether rotational values are in degrees (yes) or radians (no).

endheader
time	pelvis_tilt	pelvis_list	pelvis_rotation	pelvis_tx	pelvis_ty	pelvis_tz	hip_flexion_r	hip_adduction_r	hip_rotation_r	knee_angle_r	knee_angle_r_beta	ankle_angle_r	hip_flexion_l	hip_adduction_l	hip_rotation_l	knee_angle_l	knee_angle_l_beta	ankle_angle_l
     14.98666667	     -3.23112071	     -4.04486196	     -3.01242956	      2.25379818	      1.01745864	      1.04444037	     22.68035736	      6.38737011	     -2.99874457	     17.45890988	      0.30471546	      0.00394499	     -7.61207279	     -8.44565475	    -13.75335018	     43.37933272	      0.75711218	    -23.80690180
     14.99333333	     -3.12517146	     -4.42944301	     -3.38069072	      2.25324469	      1.01351738	      1.04550079	     23.01978989	      6.79311804	     -3.57657048	     19.94625962	      0.34812790	      1.10884440	     -6.61071748	     -9.30570056	    -14.01048967	     46.29640430	      0.80802469	    -24.43989016
     15.00000000	     -2.67048979	     -4.84077257	     -3.68382838	      2.25251368	      1.00973915	      1.04643280	     22.96418191	      7.17356703	     -4.04827598	     22.54630761	      0.39350730	      2.50193169	     -5.93496324	    -10.15973509	    -14.15978128	     49.17141631	      0.85820311	    -24.64973380
     15.00666667	     -2.14596622	     -5.22350347	     -3.90896685	      2.25156939	      1.00586396	      1.04723028	     22.82531310	      7.48787246	     -4.39975252	     25.22717583	      0.44029728	      4.14899824	     -5.23320387	    -10.95525983	    -14.12523797	     52.05281516	      0.90849301	    -24.39580755
     15.01333333	     -1.55202993	     -5.56831476	     -4.06088907	      2.25039630	      1.00197657	      1.04791123	     22.58033062	      7.74289996	     -4.61213478	     27.90079306	      0.48696070	      5.99772765	     -4.50300665	    -11.67155271	    -13.91488803	     54.91878268	      0.95851358	    -23.68054491
     15.02000000	     -0.59207699	     -5.94373326	     -4.17501001	      2.24903108	      0.99852783	      1.04848685	     21.83161973	      8.02486971	     -4.65007617	     30.39549019	      0.53050138	      8.00835173	     -4.14096851	    -12.37397314	    -13.69706814	     57.66172139	      1.00638689	    -22.56299138
     15.02666667	     -0.19135425	     -6.21110354	     -4.10376212	      2.24739723	      0.99452161	      1.04887952	     21.67911054	      8.16639088	     -4.75893483	     32.84226794	      0.57320571	      9.97108025	     -2.91533543	    -12.94267777	    -13.00728815	     60.51619939	      1.05620693	    -21.03679335
     15.03333333	      0.49478934	     -6.50892670	     -3.99298630	      2.24561767	      0.99108154	      1.04918805	     21.06510985	      8.35126858	     -4.74885292	     34.97951589	      0.61050772	     11.96599211	     -1.96981578	    -13.48498757	    -12.29941571	     63.19323646	      1.10293004	    -19.29460887
     15.04000000	      1.41117187	     -6.76398903	     -3.97534146	      2.24370555	      0.98819228	      1.04956802	     20.05771242	      8.54269880	     -4.53666697	     36.84122766	      0.64300072	     13.93791290	     -1.31599525	    -13.97598846	    -11.81627852	     65.64606185	      1.14573992	    -17.31520861
     15.04666667	      1.94544820	     -7.04728816	     -3.60952207	      2.24165536	      0.98526354	      1.04957086	     19.32504139	      8.66624488	     -4.70224236	     38.36965115	      0.66967675	     15.64353852	      0.03361029	    -14.42500875	    -10.71269192	     68.10825315	      1.18871327	    -15.20217998
     15.05333333	      2.62096295	     -7.23696142	     -3.51911835	      2.23965099	      0.98290051	      1.04988639	     18.29135130	      8.80400377	     -4.53002646	     39.66039981	      0.69220456	     17.40266215	      1.08003327	    -14.75404138	    -10.01524391	     70.24584381	      1.22602126	    -13.10410617
     15.06000000	      2.68297566	     -7.40040946	     -3.02196729	      2.23764465	      0.98043549	      1.04980950	     17.77165619	      8.82126913	     -4.80685479	     40.59228310	      0.70846899	     18.75582769	      3.10337564	    -15.01435518	     -8.69297422	     72.36699807	      1.26304239	    -11.13420069
     15.06666667	      3.15155791	     -7.53198596	     -2.81215226	      2.23578918	      0.97894738	      1.05007617	     16.60570782	      8.91830347	     -4.71955666	     41.20002050	      0.71907601	     20.11244649	      4.44310754	    -15.24808767	     -7.91016592	     74.06672798	      1.29270827	     -9.18497700
     15.07333333	      3.56211746	     -7.51810208	     -2.73634787	      2.23390453	      0.97798522	      1.05053702	     15.38775535	      8.95697603	     -4.34693330	     41.60076112	      0.72607025	     21.13564687	      5.79620504	    -15.31696172	     -7.30420299	     75.47977282	      1.31737055	     -7.74813318
     15.08000000	      3.24905567	     -7.73098298	     -1.94476842	      2.23264557	      0.97672202	      1.05025291	     14.68477498	      8.99584592	     -5.08601796	     41.47217508	      0.72382600	     22.11134520	      8.27147366	    -15.54480178	     -5.81089845	     76.88303286	      1.34186206	     -5.95618903
     15.08666667	      2.98408517	     -7.66955253	     -1.68477402	      2.23139429	      0.97610680	      1.05060220	     13.86259409	      8.95854124	     -5.07215602	     41.29065975	      0.72065796	     22.91543113	     10.38551163	    -15.51956198	     -5.05585819	     77.85198736	      1.35877351	     -4.57178600
     15.09333333	      2.95224866	     -7.45033668	     -1.66485309	      2.23046902	      0.97639583	      1.05125061	     12.60852552	      8.85430751	     -4.67391557	     40.84063955	      0.71280363	     23.63489396	     11.97241839	    -15.40338963	     -4.82348092	     78.37824951	      1.36795852	     -3.33695228
     15.10000000	      2.68978794	     -7.39946670	     -1.34953508	      2.22980376	      0.97685642	      1.05156995	     11.45099261	      8.86157852	     -4.68519713	     40.07568206	      0.69945260	     24.08332488	     13.91251921	    -15.42445725	     -4.29854448	     78.75311504	      1.37450115	     -2.22144866
     15.10666667	      2.44056857	     -7.01514456	     -1.40837677	      2.22933204	      0.97799928	      1.05231370	     10.20034851	      8.60912221	     -4.22253316	     39.23005393	      0.68469361	     24.44769277	     15.51155546	    -15.18744402	     -4.42259886	     78.68129883	      1.37324772	     -1.26585073
     15.11333333	      2.13695167	     -6.65809323	     -1.43567168	      2.22910334	      0.97949122	      1.05293449	      8.89292607	      8.39229548	     -3.75198996	     38.16601953	      0.66612270	     24.64481515	     17.08014857	    -14.96995096	     -4.60052784	     78.35367633	      1.36752963	     -0.33414702
     15.12000000	      2.27210146	     -6.40933617	     -1.42956134	      2.22910499	      0.98193731	      1.05338830	      6.92632467	      8.29490374	     -3.20973360	     36.73366429	      0.64112339	     24.58550396	     18.01566373	    -14.92145668	     -4.98119085	     77.70386332	      1.35618826	      0.56706423
     15.12666667	      2.37671384	     -5.88661004	     -1.66107208	      2.22930397	      0.98487286	      1.05399434	      4.97006260	      7.89451511	     -2.44485330	     35.28236024	      0.61579335	     24.36854887	     18.71704603	    -14.64232848	     -5.81805146	     76.67827196	      1.33828831	      1.38900453
     15.13333333	      2.48963707	     -5.32931538	     -1.91583321	      2.22965029	      0.98818151	      1.05448130	      2.95755000	      7.41725196	     -1.69329894	     33.71265798	      0.58839688	     23.89701568	     19.27717114	    -14.32466256	     -6.78873394	     75.37486382	      1.31553955	      2.15567821
     15.14000000	      2.63745609	     -4.70661288	     -2.20334907	      2.23017474	      0.99187603	      1.05483389	      0.87529248	      6.81917494	     -0.95976858	     32.04731988	      0.55933125	     23.16978536	     19.65065991	    -13.91715359	     -7.90793823	     73.78676914	      1.28782207	      2.85790261
     15.14666667	      2.84732078	     -4.04875529	     -2.50013257	      2.23084571	      0.99591587	      1.05502214	     -1.28905167	      6.12467871	     -0.29600457	     30.30262274	      0.52888054	     22.15173109	     19.82444414	    -13.43512167	     -9.12810084	     71.93399532	      1.25548506	      3.52437564
     15.15333333	      3.03911994	     -3.35884297	     -2.79197395	      2.23161976	      1.00018259	      1.05503194	     -3.42366914	      5.34787792	      0.30088068	     28.51385769	      0.49766070	     20.83897059	     19.91015332	    -12.84701184	    -10.37335562	     69.82470928	      1.21867108	      4.08313852
     15.16000000	      3.21525619	     -2.67437127	     -3.07212825	      2.23254845	      1.00460132	      1.05488343	     -5.52684939	      4.53067141	      0.78226220	     26.69467183	      0.46590992	     19.25612568	     19.91815765	    -12.20511905	    -11.63584878	     67.48624514	      1.17785718	      4.52830256
     15.16666667	      3.11763159	     -1.94373209	     -3.28197337	      2.23352103	      1.00883323	      1.05446896	     -7.22715624	      3.63436921	      1.05362038	     25.00894818	      0.43648849	     17.43628134	     20.18648144	    -11.38867294	    -12.75372612	     64.95516787	      1.13368155	      4.83568838
     15.17333333	      3.19832233	     -1.27300570	     -3.50523582	      2.23452303	      1.01335003	      1.05399921	     -9.09850442	      2.76847614	      1.29645874	     23.29292272	      0.40653819	     15.28515292	     20.14950063	    -10.57816463	    -13.89833750	     62.18023264	      1.08524979	      5.07353144
     15.18000000	      2.98748362	     -0.60846122	     -3.63261110	      2.23556335	      1.01757657	      1.05327941	    -10.53615598	      1.90940320	      1.32783850	     21.74343917	      0.37949460	     12.98202624	     20.40620870	     -9.64551622	    -14.82861226	     59.23428849	      1.03383336	      5.14552018
     15.18666667	      2.57545223	      0.00375105	     -3.71230786	      2.23662589	      1.02156790	      1.05241690	    -11.64447047	      1.11173057	      1.26910910	     20.35681237	      0.35529340	     10.53096194	     20.83131329	     -8.67858222	    -15.60732236	     56.11935367	      0.97946750	      5.08047349
     15.19333333	      1.96827152	      0.53433892	     -3.73830013	      2.23766757	      1.02528310	      1.05140604	    -12.41117916	      0.40491200	      1.10890751	     19.16695486	      0.33452647	      7.99915906	     21.41522121	     -7.71281637	    -16.21334263	     52.84767683	      0.92236596	      4.90658011
     15.20000000	      1.35746955	      1.03039494	     -3.71058468	      2.23868782	      1.02887229	      1.05025842	    -13.06105072	     -0.26249250	      0.87603644	     18.14726155	      0.31672946	      5.41331900	     21.93048987	     -6.69693300	    -16.69031938	     49.40442018	      0.86226980	      4.64226355
     15.20666667	      0.52629206	      1.38743938	     -3.65605957	      2.23952154	      1.03208334	      1.04898070	    -13.28290282	     -0.77931924	      0.64893555	     17.43260330	      0.30425632	      2.89581187	     22.64080286	     -5.71864740	    -16.86747627	     45.83331310	      0.79994222	      4.27640691
     15.21333333	     -0.21604786	      1.68885903	     -3.56037016	      2.24031748	      1.03517269	      1.04763926	    -13.45660411	     -1.24903332	      0.33681158	     16.95799917	      0.29597292	      0.42306604	     23.14994089	     -4.73166507	    -16.90398930	     42.10380480	      0.73485002	      3.91038813
     15.22000000	     -1.19369198	      1.86269838	     -3.42719685	      2.24104171	      1.03773139	      1.04623244	    -13.21759569	     -1.56592615	      0.06833827	     16.76229372	      0.29255722	     -1.88608505	     23.86460911	     -3.81996876	    -16.66960174	     38.32526166	      0.66890200	      3.50534307
     15.22666667	     -2.12071170	      1.93123551	     -3.26954104	      2.24170314	      1.03998456	      1.04477384	    -12.86776401	     -1.78667526	     -0.22545887	     16.86429900	      0.29433754	     -4.06257376	     24.43498043	     -2.97559182	    -16.24154661	     34.48462785	      0.60187030	      3.16437590
